<?xml version="1.0" encoding="UTF-8"?>
<svg width="46px" height="35px" viewBox="0 0 46 35" version="1.1" xmlns="http://www.w3.org/2000/svg" xmlns:xlink="http://www.w3.org/1999/xlink">
    <title>envelope-solid</title>
    <defs>
        <filter id="filter-1">
            <feColorMatrix in="SourceGraphic" type="matrix" values="0 0 0 0 0.566746 0 0 0 0 0.566746 0 0 0 0 0.566746 0 0 0 1.000000 0"></feColorMatrix>
        </filter>
    </defs>
    <g id="Page-1" stroke="none" stroke-width="1" fill="none" fill-rule="evenodd">
        <g id="envelope-solid" transform="translate(-394.000000, -724.000000)" filter="url(#filter-1)">
            <g transform="translate(394.000000, 724.000000)">
                <path d="M45.1285156,11.3921875 C45.4789063,11.1136719 46,11.3742187 46,11.8144531 L46,30.1875 C46,32.5683594 44.0683594,34.5 41.6875,34.5 L4.3125,34.5 C1.93164062,34.5 0,32.5683594 0,30.1875 L0,11.8234375 C0,11.3742187 0.512109375,11.1226562 0.871484375,11.4011719 C2.88398437,12.9644531 5.55234375,14.95 14.7164062,21.6074219 C16.6121094,22.9910156 19.8105469,25.9019531 23,25.8839844 C26.2074219,25.9109375 29.46875,22.9371094 31.2925781,21.6074219 C40.4566406,14.95 43.1160156,12.9554687 45.1285156,11.3921875 Z M23,23 C25.084375,23.0359375 28.0851563,20.3765625 29.5945312,19.2804688 C41.5167969,10.6285156 42.4242187,9.87382813 45.1734375,7.71757813 C45.6945312,7.31328125 46,6.684375 46,6.01953125 L46,4.3125 C46,1.93164063 44.0683594,2.55351296e-15 41.6875,2.55351296e-15 L4.3125,2.55351296e-15 C1.93164062,2.55351296e-15 0,1.93164063 0,4.3125 L0,6.01953125 C0,6.684375 0.30546875,7.30429688 0.8265625,7.71757813 C3.57578125,9.86484375 4.48320313,10.6285156 16.4054688,19.2804688 C17.9148437,20.3765625 20.915625,23.0359375 23,23 Z" id="Shape" fill="#000000" fill-rule="nonzero"></path>
            </g>
        </g>
    </g>
</svg>