<?xml version="1.0" encoding="UTF-8"?>
<svg width="46px" height="46px" viewBox="0 0 46 46" version="1.1" xmlns="http://www.w3.org/2000/svg" xmlns:xlink="http://www.w3.org/1999/xlink">
    <title>linkedin-in-brands</title>
    <defs>
        <filter id="filter-1">
            <feColorMatrix in="SourceGraphic" type="matrix" values="0 0 0 0 0.566746 0 0 0 0 0.566746 0 0 0 0 0.566746 0 0 0 1.000000 0"></feColorMatrix>
        </filter>
    </defs>
    <g id="Page-1" stroke="none" stroke-width="1" fill="none" fill-rule="evenodd">
        <g id="linkedin-in-brands" transform="translate(-316.000000, -712.000000)" filter="url(#filter-1)">
            <g transform="translate(316.000000, 712.000000)">
                <path d="M10.2966071,46 L0.759821429,46 L0.759821429,15.2881537 L10.2966071,15.2881537 L10.2966071,46 Z M5.52308036,11.0987745 C2.47352679,11.0987745 0,8.57282522 0,5.52320357 C0,2.47282245 2.47276734,0 5.52308036,0 C8.57339338,0 11.0461607,2.47282245 11.0461607,5.52320357 C11.0461607,8.57282522 8.57160714,11.0987745 5.52308036,11.0987745 Z M45.9897321,46 L36.4734821,46 L36.4734821,31.0496663 C36.4734821,27.4866403 36.4016071,22.9173419 31.5151339,22.9173419 C26.5567857,22.9173419 25.7969643,26.7884104 25.7969643,30.7929641 L25.7969643,46 L16.2704464,46 L16.2704464,15.2881537 L25.4170536,15.2881537 L25.4170536,19.4775329 L25.5505357,19.4775329 C26.82375,17.0645326 29.9338839,14.5180472 34.5739286,14.5180472 C44.2257143,14.5180472 46,20.8739927 46,29.1295341 L46,46 L45.9897321,46 Z" id="Shape" fill="#000000" fill-rule="nonzero"></path>
            </g>
        </g>
    </g>
</svg>